<svg width="21" height="21" viewBox="0 0 21 21" fill="none" xmlns="http://www.w3.org/2000/svg">
    <path d="M5.45973 0.5166C3.50118 0.577436 2.24716 0.826671 1.68785 1.26823C1.42684 1.47233 1.18153 1.8923 1.06967 2.31815C0.997058 2.59879 0.967621 2.88138 0.934259 3.61731C0.918559 3.98822 0.891084 4.43174 0.875384 4.60248C0.849872 4.86741 0.845947 5.74268 0.845947 10.6862C0.845947 14.2559 0.853797 16.5383 0.865572 16.6658C0.875384 16.7796 0.902859 17.1407 0.924446 17.4704C0.971546 18.1652 1.00491 18.4478 1.07163 18.7068C1.17172 19.1071 1.33657 19.3917 1.62505 19.6704C2.09801 20.1257 2.60236 20.316 3.61304 20.4181C3.90741 20.4475 5.12218 20.4514 6.596 20.4259C7.43594 20.4122 7.77545 20.4161 8.43092 20.4416C10.7977 20.5358 11.8829 20.5182 12.7778 20.3729C14.4773 20.0982 15.0857 19.3917 15.2309 17.5097C15.2525 17.2546 15.2603 4.63976 15.2407 4.61818C15.2348 4.61425 14.9738 4.59855 14.6579 4.58481C12.7876 4.50239 12.2558 4.39249 11.8515 4.01177C11.4041 3.58984 11.2628 2.95596 11.2588 1.37617L11.2569 0.618649L10.7761 0.604912C10.5111 0.597062 9.91652 0.5794 9.45141 0.5637C7.48697 0.496976 6.47433 0.4852 5.45973 0.5166ZM6.27023 9.37718C6.95514 9.50671 7.56939 10.0209 7.95208 10.7823C8.00506 10.8883 8.05216 10.9746 8.05609 10.9746C8.06001 10.9746 8.09926 10.902 8.14244 10.8118C8.47213 10.1327 9.02555 9.64015 9.66924 9.45372C10.1599 9.31242 10.6583 9.3556 11.1136 9.58128C11.3138 9.68137 11.4198 9.75594 11.5964 9.92275C12.0281 10.3309 12.2852 10.9001 12.3637 11.6262C12.452 12.4249 12.2558 13.0392 11.7416 13.5867C11.4531 13.8928 11.1862 14.0911 10.3541 14.617C10.1167 14.7681 9.83802 14.9526 9.734 15.0291C9.04321 15.5413 8.32102 16.3067 8.10319 16.7541L8.06197 16.8366L7.99525 16.707C7.7519 16.2341 7.11999 15.5708 6.46256 15.0998C6.32322 14.9997 6.22706 14.9369 5.47347 14.4718C5.27526 14.3501 5.01817 14.1774 4.90042 14.0911C3.96825 13.3924 3.6307 12.6506 3.75826 11.583C3.84265 10.8903 4.086 10.3447 4.49223 9.93649C4.98089 9.44391 5.5971 9.24962 6.27023 9.37718Z" fill="#dc2626"></path>
</svg>