<svg width="36" height="40" viewBox="0 0 36 40" fill="none" xmlns="http://www.w3.org/2000/svg">
<path d="M17.0473 0.0115738C16.9552 0.0230885 16.7901 0.0384426 16.6788 0.0384426C16.5713 0.0422821 16.4677 0.0614738 16.4562 0.0806656C16.4408 0.103697 16.3756 0.111374 16.2988 0.0960197C16.222 0.0806656 16.1683 0.0883427 16.1683 0.111374C16.1683 0.130566 16.057 0.161272 15.9188 0.176624C15.7806 0.188141 15.6616 0.21501 15.6501 0.230364C15.6424 0.249556 15.5887 0.253395 15.5349 0.241879C15.4812 0.234203 15.439 0.241879 15.439 0.26107C15.439 0.284101 15.3968 0.29178 15.343 0.280264C15.2854 0.272587 15.2471 0.280262 15.2471 0.307131C15.2471 0.330162 15.2125 0.349354 15.1741 0.349354C15.1319 0.349354 15.0858 0.368547 15.0743 0.387739C15.059 0.41077 15.0168 0.418446 14.9745 0.406931C14.9323 0.391577 14.9016 0.399256 14.9016 0.426125C14.9016 0.452993 14.8709 0.460669 14.8248 0.445316C14.7826 0.4338 14.7481 0.437639 14.7481 0.456831C14.7481 0.476023 14.6521 0.514408 14.537 0.541277C14.4218 0.568146 14.3258 0.602692 14.3258 0.618044C14.3258 0.633398 14.2491 0.667944 14.1531 0.694813C14.0572 0.721682 13.9804 0.763905 13.9804 0.786936C13.9804 0.809967 13.9612 0.802286 13.942 0.77158C13.9151 0.733196 13.9036 0.729359 13.9036 0.763905C13.9036 0.809965 13.7232 0.905926 13.6656 0.894411C13.6464 0.890572 13.6349 0.905924 13.6349 0.928955C13.6349 0.948147 13.6157 0.955824 13.5965 0.944309C13.5735 0.932793 13.5313 0.948149 13.4967 0.978855C13.466 1.0134 13.4123 1.04027 13.3816 1.04027C13.3509 1.04027 13.3279 1.05562 13.3279 1.07866C13.3279 1.09785 13.2971 1.10552 13.2626 1.09017C13.2242 1.07865 13.205 1.07866 13.2204 1.09785C13.2472 1.12855 12.9824 1.28209 12.9517 1.25138C12.944 1.24371 12.8941 1.28209 12.8442 1.33583C12.7981 1.38573 12.7367 1.42027 12.7137 1.40492C12.6945 1.3934 12.6638 1.40876 12.6523 1.43947C12.6408 1.47401 12.6062 1.50088 12.5755 1.50088C12.5448 1.50088 12.5218 1.51623 12.5218 1.53926C12.5218 1.55845 12.4834 1.57765 12.4373 1.57765C12.3913 1.57765 12.3644 1.58916 12.3798 1.60068C12.4028 1.62755 12.207 1.77341 12.0919 1.81947C12.0535 1.83098 12.0228 1.86169 12.0228 1.88856C12.0228 1.91159 11.9998 1.92311 11.969 1.91159C11.9383 1.90008 11.8961 1.93078 11.8693 1.98452C11.8232 2.06897 11.781 2.092 11.7387 2.06513C11.7311 2.06129 11.685 2.10351 11.6389 2.16109C11.5967 2.21866 11.4969 2.29543 11.424 2.32998C11.3511 2.36452 11.2935 2.41442 11.2935 2.44513C11.2935 2.50271 10.9941 2.7522 10.9404 2.73685C10.9212 2.73301 10.9135 2.74453 10.9288 2.76756C10.9404 2.78675 10.9096 2.8213 10.8559 2.84433C10.7983 2.86352 10.7599 2.89422 10.7638 2.91342C10.7791 2.95948 10.4068 3.38171 10.3531 3.38171C10.3262 3.38171 10.2763 3.43928 10.2418 3.51221C10.2072 3.58514 10.142 3.67726 10.0921 3.71565C10.046 3.75403 9.98459 3.8308 9.95388 3.88838C9.92317 3.94979 9.88479 3.99585 9.86559 3.99585C9.85024 3.99585 9.83489 4.02272 9.83489 4.05343C9.83489 4.08414 9.8157 4.111 9.7965 4.111C9.77347 4.111 9.74277 4.14171 9.73125 4.17626C9.70054 4.26454 9.55468 4.47182 9.52014 4.48717C9.50094 4.49485 9.48943 4.52172 9.48943 4.54859C9.48943 4.57545 9.45872 4.62919 9.42418 4.67142C9.38579 4.7098 9.33205 4.79041 9.30135 4.84798C9.27064 4.9094 9.23226 4.95546 9.21306 4.95546C9.19771 4.95546 9.18236 4.98233 9.18236 5.01303C9.18236 5.04758 9.14013 5.13586 9.09407 5.21647C9.04417 5.29324 8.94054 5.50051 8.85993 5.67324C8.78316 5.84597 8.69488 6.03789 8.66417 6.09547C8.63346 6.15304 8.60659 6.22597 8.60659 6.249C8.60659 6.27587 8.5874 6.2989 8.56437 6.2989C8.54518 6.2989 8.5375 6.3181 8.54902 6.33729C8.56437 6.36032 8.54902 6.42941 8.51447 6.49082C8.48376 6.55224 8.44922 6.65588 8.43386 6.72113C8.41851 6.78255 8.39164 6.83628 8.37245 6.83628C8.34942 6.83628 8.34558 6.85547 8.3571 6.87467C8.38396 6.91689 8.26113 7.30841 8.21891 7.3276C8.2074 7.33144 8.20356 7.38134 8.21507 7.43124C8.22275 7.48497 8.21507 7.5272 8.19972 7.5272C8.18053 7.5272 8.16134 7.56558 8.1575 7.61164C8.1383 7.82659 8.09608 7.98781 8.06154 7.98781C8.03851 7.98781 8.03467 8.03003 8.04618 8.08377C8.06154 8.13751 8.0577 8.20276 8.04234 8.22963C8.02699 8.2565 8.0078 8.31791 8.00396 8.37165C7.9579 8.87448 7.94255 8.98196 7.91951 8.97044C7.908 8.95893 7.89648 9.4157 7.89648 9.98379C7.89648 10.548 7.908 11.0048 7.92335 10.9971C7.94638 10.9818 7.98861 11.3387 7.99244 11.5729C7.99244 11.6343 8.01164 11.7072 8.03467 11.7341C8.0577 11.7648 8.06537 11.8377 8.05002 11.9068C8.03083 11.9836 8.03467 12.0181 8.06154 12.0028C8.09608 11.9836 8.11911 12.0719 8.1575 12.3483C8.16517 12.3905 8.18437 12.4442 8.19972 12.4711C8.21507 12.498 8.21507 12.5555 8.20356 12.5977C8.18437 12.6515 8.19204 12.6707 8.21507 12.6553C8.2381 12.6438 8.26497 12.7091 8.28033 12.8242C8.29568 12.9279 8.31871 13.0161 8.33406 13.0161C8.34942 13.0161 8.3878 13.1159 8.41467 13.2349C8.44154 13.3539 8.47609 13.4806 8.49528 13.5151C8.52599 13.5727 8.76781 14.1715 8.92518 14.5899C8.97124 14.705 9.01347 14.8087 9.02882 14.8202C9.04033 14.8317 9.18236 15.1081 9.35125 15.4343C9.72357 16.1675 9.80802 16.3325 9.83873 16.3556C9.85024 16.3671 9.92701 16.4937 10.0076 16.6434C10.0882 16.7893 10.1688 16.9198 10.1803 16.9313C10.2072 16.9505 10.5104 17.4457 10.5834 17.5877C10.6026 17.6261 10.6333 17.6606 10.6486 17.6606C10.6678 17.6606 10.6793 17.6798 10.6793 17.699C10.6793 17.722 10.7484 17.8334 10.8329 17.9447C10.9173 18.056 10.9864 18.1673 10.9864 18.1903C10.9864 18.2095 10.9979 18.2364 11.0171 18.2441C11.0517 18.2594 11.1975 18.4667 11.2282 18.5511C11.2397 18.5895 11.2705 18.6202 11.2935 18.6202C11.3127 18.6202 11.3319 18.6394 11.3319 18.6586C11.3319 18.6816 11.3511 18.72 11.3703 18.7469C11.5276 18.9311 11.5622 18.9849 11.5622 19.0271C11.5622 19.054 11.5852 19.0924 11.6121 19.1077C11.6658 19.1384 11.946 19.5223 11.946 19.5606C11.946 19.5722 11.9767 19.6105 12.0151 19.6528C12.0497 19.6911 12.1149 19.7679 12.1571 19.8255C12.1994 19.8792 12.2646 19.9637 12.303 20.0059C12.3375 20.052 12.3682 20.1019 12.3682 20.1172C12.3682 20.1326 12.4297 20.2132 12.5026 20.2938C12.5755 20.3744 12.6369 20.4588 12.6369 20.478C12.6369 20.5011 12.6983 20.5855 12.7713 20.6699C12.8442 20.7505 12.9056 20.8312 12.9056 20.8465C12.9056 20.8619 12.944 20.9194 12.9939 20.9732C13.1359 21.1344 13.2127 21.2457 13.2127 21.2879C13.2127 21.3071 13.2472 21.3493 13.2895 21.3762C13.3317 21.4031 13.3662 21.4453 13.3662 21.4722C13.3662 21.499 13.4008 21.5413 13.443 21.5681C13.4852 21.595 13.5198 21.6372 13.5198 21.6641C13.5198 21.6871 13.5582 21.7485 13.6081 21.7908C13.6541 21.8368 13.7194 21.9251 13.7501 21.9827C13.7808 22.0441 13.8384 22.117 13.8729 22.1439C13.9113 22.1708 13.942 22.2091 13.942 22.2322C13.942 22.2514 13.9765 22.3013 14.0188 22.3435C14.0648 22.3896 14.0879 22.4395 14.0763 22.4586C14.061 22.4817 14.0763 22.497 14.1071 22.497C14.1378 22.497 14.1838 22.5469 14.2069 22.6122C14.226 22.6736 14.2644 22.7273 14.2836 22.7273C14.3066 22.7273 14.3258 22.7542 14.3258 22.7849C14.3258 22.8156 14.3412 22.8425 14.3565 22.8425C14.3873 22.8425 14.583 23.1112 14.6905 23.2993C14.7135 23.3376 14.7557 23.3952 14.7865 23.4298C14.9054 23.5603 14.94 23.6063 14.94 23.6486C14.94 23.6677 14.9553 23.6869 14.9745 23.6869C14.9937 23.6869 15.0206 23.7176 15.0359 23.7599C15.0551 23.8213 15.0974 23.8789 15.2471 24.0593C15.2663 24.0861 15.2854 24.1168 15.2854 24.1284C15.2854 24.1399 15.3545 24.2435 15.439 24.3548C15.5234 24.4661 15.5925 24.5775 15.5925 24.6005C15.5925 24.6274 15.604 24.6465 15.6232 24.6465C15.6501 24.6465 15.7614 24.8193 15.7806 24.896C15.7844 24.9152 15.8151 24.9498 15.8459 24.9651C15.8766 24.9805 15.8996 25.0189 15.8996 25.0496C15.8996 25.0764 15.9149 25.1072 15.9341 25.1148C15.9533 25.1187 15.9764 25.1532 15.984 25.1839C15.9917 25.2146 16.0263 25.2722 16.0646 25.3183C16.103 25.3605 16.1644 25.4565 16.199 25.5294C16.2335 25.6023 16.2911 25.6983 16.3295 25.7367C16.3679 25.7789 16.3986 25.8365 16.3986 25.8633C16.3986 25.8902 16.4139 25.9132 16.4331 25.9132C16.4523 25.9132 16.4869 25.9708 16.5176 26.0361C16.5444 26.1051 16.579 26.1704 16.5905 26.1819C16.6442 26.2203 16.8976 26.6886 16.8976 26.7423C16.8976 26.7692 16.9129 26.7961 16.9283 26.7961C16.9436 26.7961 17.0204 26.9112 17.0933 27.0532C17.1624 27.1991 17.2354 27.3219 17.2469 27.3334C17.2622 27.345 17.2968 27.414 17.3313 27.487C17.362 27.5599 17.4465 27.6827 17.5156 27.7557C17.6384 27.8823 17.6653 27.8938 17.8879 27.8977C18.0184 27.9015 18.1259 27.89 18.1259 27.8785C18.1259 27.8631 18.1719 27.8286 18.2334 27.8017C18.3063 27.7672 18.3754 27.6712 18.4713 27.4678C18.5443 27.3104 18.6172 27.1799 18.6326 27.1799C18.6517 27.1799 18.6633 27.1607 18.6633 27.1338C18.6633 27.0571 19.4309 25.7443 19.5653 25.5908C19.5883 25.5678 19.6382 25.4833 19.6804 25.4027C19.7227 25.3221 19.7879 25.23 19.8263 25.1954C19.8608 25.1609 19.8916 25.111 19.8916 25.0803C19.8916 25.0534 19.9069 25.0304 19.9261 25.0304C19.9453 25.0304 19.9683 24.9997 19.9837 24.9651C20.0144 24.8692 20.095 24.7463 20.1526 24.7118C20.1756 24.6964 20.1986 24.6581 20.1986 24.6312C20.1986 24.589 20.2332 24.5352 20.3905 24.351C20.4097 24.3241 20.4289 24.2934 20.4289 24.2819C20.4289 24.255 20.5019 24.1629 20.594 24.0785C20.6285 24.0439 20.6592 23.994 20.6592 23.971C20.6592 23.948 20.7091 23.8673 20.7744 23.7983C20.8358 23.7253 20.8895 23.6486 20.8895 23.6217C20.8895 23.5987 20.9241 23.5526 20.9663 23.5219C21.0085 23.4912 21.0316 23.4605 21.02 23.4451C21.0085 23.4336 21.0316 23.4067 21.0738 23.3837C21.116 23.3607 21.1621 23.2993 21.1736 23.2455C21.1889 23.1918 21.2235 23.1496 21.258 23.1496C21.2887 23.1496 21.3079 23.1342 21.2926 23.1112C21.2811 23.092 21.3041 23.0421 21.3502 22.996C21.3924 22.9538 21.4269 22.9077 21.4269 22.8962C21.4269 22.877 21.7071 22.5085 21.83 22.3704C21.8607 22.3358 21.8875 22.2898 21.8875 22.2667C21.8875 22.2475 21.9221 22.2091 21.9643 22.1823C22.0065 22.1554 22.0411 22.117 22.0411 22.1017C22.0411 22.0671 22.1754 21.8867 22.2906 21.7639C22.3213 21.7293 22.3481 21.691 22.3481 21.6756C22.3481 21.6526 22.5362 21.3954 22.636 21.2841C22.6591 21.2611 22.709 21.1958 22.7512 21.1344C22.7934 21.073 22.8663 20.9847 22.9162 20.9348C22.9623 20.8849 23.0007 20.8273 23.0007 20.8081C23.0007 20.7889 23.0314 20.7505 23.0736 20.7237C23.112 20.6968 23.1542 20.6354 23.1696 20.5855C23.1849 20.5394 23.2233 20.5011 23.254 20.5011C23.2847 20.5011 23.3077 20.4742 23.3077 20.4435C23.3077 20.4128 23.3423 20.3552 23.3845 20.3206C23.4267 20.2823 23.4613 20.2362 23.4613 20.2132C23.4613 20.194 23.4997 20.1287 23.5496 20.075C23.7223 19.8716 23.8067 19.7526 23.8067 19.7257C23.8067 19.7103 23.8336 19.695 23.8643 19.695C23.895 19.695 23.9219 19.6604 23.9219 19.6221C23.9219 19.5798 23.9526 19.5223 23.991 19.4954C24.0601 19.4416 24.1292 19.3419 24.1867 19.2152C24.2059 19.173 24.275 19.0847 24.3403 19.0233C24.4055 18.958 24.4593 18.8889 24.4593 18.8659C24.4593 18.8429 24.5092 18.7622 24.5744 18.6932C24.6358 18.6202 24.6896 18.5435 24.6896 18.5204C24.6896 18.4936 24.7164 18.4667 24.7472 18.4513C24.7779 18.4398 24.8047 18.4053 24.8047 18.3784C24.8047 18.3323 24.8393 18.2786 24.9967 18.0944C25.0158 18.0675 25.035 18.0368 25.035 18.0291C25.035 18.0061 25.4227 17.4226 25.4573 17.3919C25.4688 17.3804 25.5225 17.2921 25.5724 17.1885C25.6262 17.0887 25.6799 17.0081 25.6952 17.0081C25.7144 17.0081 25.726 16.9851 25.726 16.9582C25.726 16.9313 25.7605 16.8699 25.8027 16.8238C25.8449 16.7778 25.8795 16.7202 25.8795 16.6895C25.8795 16.6626 25.914 16.6012 25.9563 16.5552C25.9985 16.5091 26.033 16.4554 26.033 16.4323C26.033 16.4093 26.0753 16.3287 26.1213 16.2481C26.1712 16.1713 26.3132 15.8988 26.4399 15.6455C26.5627 15.3921 26.6779 15.1772 26.6894 15.1657C26.7009 15.1541 26.7431 15.0543 26.7815 14.943C26.8237 14.8355 26.8698 14.7434 26.8852 14.7434C26.9005 14.7434 26.9159 14.7127 26.9159 14.6743C26.9159 14.6359 26.9466 14.5438 26.9888 14.4632C27.0272 14.3865 27.0848 14.2444 27.1116 14.1485C27.1385 14.0525 27.1769 13.9757 27.1922 13.9757C27.2076 13.9757 27.2114 13.9527 27.1999 13.922C27.1884 13.8913 27.1961 13.8568 27.2191 13.8414C27.2421 13.8299 27.2613 13.7838 27.2613 13.7416C27.2613 13.6955 27.2767 13.6763 27.3035 13.6917C27.3343 13.7071 27.3381 13.6917 27.3189 13.6341C27.3035 13.5842 27.3112 13.5535 27.3381 13.5535C27.365 13.5535 27.3726 13.5228 27.3573 13.4806C27.3458 13.4384 27.3534 13.3961 27.3726 13.3846C27.3918 13.3693 27.4225 13.281 27.4379 13.1889C27.4494 13.0929 27.4763 13.0277 27.4993 13.0392C27.5185 13.0507 27.5223 13.02 27.507 12.9624C27.4916 12.8971 27.4993 12.8626 27.5262 12.8626C27.553 12.8626 27.5684 12.8396 27.5646 12.8127C27.5492 12.7206 27.6183 12.4404 27.6528 12.4404C27.6759 12.4404 27.6797 12.3982 27.6682 12.3406C27.6528 12.2868 27.6605 12.2216 27.6797 12.1947C27.7027 12.1678 27.7181 12.1141 27.7181 12.0757C27.7181 11.8915 27.7718 11.5959 27.8064 11.5959C27.8256 11.5959 27.8294 11.523 27.8141 11.4232C27.8025 11.3234 27.8064 11.2313 27.8294 11.2006C27.8601 11.1622 27.8831 10.7591 27.887 10.1757C27.887 10.0797 27.8755 9.80338 27.8601 9.56156C27.8448 9.31974 27.8332 9.02802 27.8294 8.9167C27.8294 8.80923 27.8179 8.72478 27.7987 8.7363C27.7718 8.75549 27.7258 8.49064 27.7181 8.2565C27.7181 8.20276 27.6989 8.14134 27.6759 8.11448C27.6567 8.08761 27.649 8.03387 27.6644 7.98781C27.6759 7.94559 27.672 7.91104 27.6528 7.91104C27.6336 7.91104 27.6029 7.83043 27.5876 7.7268C27.5722 7.627 27.5454 7.52336 27.5223 7.50033C27.4993 7.47346 27.4916 7.42356 27.507 7.39285C27.5185 7.36215 27.5147 7.33528 27.4955 7.33528C27.4763 7.33528 27.4494 7.25851 27.4379 7.16255C27.4225 7.07043 27.3918 6.98214 27.3726 6.96679C27.3496 6.95527 27.3419 6.92073 27.3534 6.89002C27.365 6.85931 27.3534 6.83628 27.3343 6.83628C27.3112 6.83628 27.2997 6.80174 27.3112 6.75951C27.3227 6.71729 27.3151 6.69042 27.2997 6.70194C27.2805 6.71345 27.2536 6.66355 27.2383 6.58678C27.2268 6.51385 27.1999 6.45244 27.1807 6.45244C27.1615 6.45244 27.1462 6.42941 27.1462 6.3987C27.1462 6.28739 26.6856 5.33546 26.4169 4.89404C26.3324 4.75586 26.2633 4.62535 26.2633 4.60616C26.2633 4.58697 26.248 4.57162 26.2249 4.57162C26.2058 4.57162 26.1866 4.55242 26.1866 4.52939C26.1866 4.50636 26.1367 4.42192 26.0791 4.34515C26.0177 4.26838 25.9563 4.17626 25.9447 4.13787C25.9294 4.10333 25.9025 4.07262 25.8833 4.07262C25.8641 4.07262 25.8334 4.03424 25.8181 3.98818C25.8027 3.94212 25.749 3.86918 25.6991 3.8308C25.6492 3.78858 25.6146 3.75019 25.6223 3.73868C25.6453 3.71948 25.5033 3.56595 24.9122 2.96332C24.6397 2.69079 24.4209 2.45281 24.4209 2.43361C24.4209 2.41442 24.3595 2.36836 24.2865 2.33382C24.2175 2.29927 24.1292 2.22634 24.0908 2.1726C24.0562 2.1227 24.014 2.08432 23.9987 2.09583C23.9795 2.10735 23.9257 2.06513 23.8758 2.00755C23.8259 1.94614 23.7684 1.90391 23.7453 1.91159C23.7223 1.91927 23.6839 1.88088 23.6532 1.82714C23.6187 1.76189 23.5918 1.74654 23.5726 1.77341C23.5572 1.80412 23.5304 1.78876 23.5035 1.73502C23.4766 1.68896 23.4421 1.66209 23.4229 1.67361C23.4037 1.68513 23.3692 1.66209 23.3461 1.61987C23.3231 1.57765 23.2847 1.55078 23.254 1.56229C23.2271 1.57381 23.1926 1.55462 23.1772 1.52007C23.1657 1.48553 23.1389 1.47017 23.1158 1.48169C23.0928 1.4932 23.0659 1.47785 23.0544 1.44714C23.0429 1.4126 23.016 1.3934 23.0007 1.40492C22.9853 1.4126 22.9239 1.37805 22.8702 1.32815C22.8126 1.27441 22.7473 1.23987 22.7281 1.25138C22.709 1.26674 22.6936 1.25522 22.6936 1.23603C22.6936 1.213 22.6706 1.19381 22.6437 1.19381C22.613 1.19381 22.5477 1.15926 22.4978 1.1132C22.4479 1.07098 22.3597 1.02492 22.3021 1.0134C22.2445 1.00189 22.2061 0.978853 22.2138 0.959661C22.2253 0.944309 22.1294 0.902088 22.0027 0.863703C21.876 0.829157 21.7724 0.786934 21.7724 0.767742C21.7724 0.74855 21.6956 0.714005 21.5997 0.690975C21.5037 0.667944 21.4269 0.629559 21.4269 0.610367C21.4269 0.591175 21.3924 0.587337 21.3502 0.598854C21.3079 0.610369 21.2734 0.606529 21.2734 0.587337C21.2734 0.568146 21.212 0.537439 21.139 0.525923C21.0661 0.510571 21.0047 0.479862 21.0047 0.456831C21.0047 0.433802 20.9701 0.426123 20.9279 0.437637C20.8857 0.449152 20.8435 0.441479 20.832 0.426125C20.8205 0.406933 20.7437 0.383902 20.6592 0.368547C20.5748 0.353195 20.5057 0.326324 20.5057 0.303293C20.5057 0.280262 20.4635 0.272587 20.4097 0.287939C20.3483 0.303293 20.3138 0.295618 20.3138 0.268749C20.3138 0.24188 20.2754 0.234203 20.2178 0.241879C20.1641 0.253395 20.1103 0.249556 20.1027 0.230364C20.0912 0.21501 19.9722 0.188141 19.834 0.176624C19.6766 0.157433 19.596 0.134405 19.6113 0.107536C19.6267 0.0806675 19.5806 0.076828 19.477 0.0921822C19.3849 0.107536 19.312 0.103697 19.2966 0.0806656C19.2812 0.0576363 19.2083 0.0422821 19.1315 0.0384426C19.0548 0.0384426 18.5903 0.0269279 18.1028 0.0115738C17.6154 -0.00378036 17.1432 -0.00378036 17.0473 0.0115738ZM18.7784 4.99768C18.9358 5.02071 19.0778 5.05526 19.0893 5.07829C19.1047 5.10132 19.1507 5.10515 19.1968 5.0898C19.239 5.07829 19.2774 5.08212 19.2774 5.10132C19.2774 5.12051 19.3465 5.14738 19.4309 5.16273C19.5154 5.17425 19.5845 5.20495 19.5845 5.22799C19.5845 5.25102 19.619 5.26253 19.6612 5.25101C19.7035 5.2395 19.738 5.24718 19.738 5.26253C19.738 5.28172 19.7918 5.30475 19.8532 5.32011C19.9223 5.33546 19.9568 5.36233 19.9453 5.38536C19.9261 5.41223 19.9453 5.41991 19.999 5.40839C20.0451 5.39304 20.0835 5.40071 20.0835 5.4199C20.0835 5.4391 20.1065 5.45445 20.1334 5.45445C20.1641 5.45445 20.2255 5.489 20.2716 5.53122C20.3215 5.5696 20.4174 5.62334 20.4903 5.64637C20.5671 5.67324 20.6093 5.70779 20.5978 5.73082C20.5825 5.75769 20.5901 5.76152 20.6132 5.74617C20.6592 5.7193 20.7245 5.75769 20.8396 5.88435C20.8742 5.9189 20.9164 5.94193 20.9318 5.93042C20.9471 5.92274 20.997 5.9688 21.0431 6.03021C21.0891 6.09547 21.139 6.14153 21.1506 6.12617C21.1813 6.09547 21.7724 6.68658 21.7724 6.748C21.7724 6.77487 21.8069 6.81325 21.8491 6.83628C21.8914 6.85931 21.9374 6.92073 21.9489 6.97446C21.9605 7.02436 22.0065 7.08578 22.0487 7.10881C22.091 7.13184 22.1178 7.15871 22.1063 7.16639C22.0948 7.1779 22.1294 7.23164 22.1793 7.28538C22.2292 7.33912 22.2714 7.40821 22.2714 7.43507C22.2714 7.46578 22.2867 7.48881 22.3021 7.48881C22.3289 7.48881 22.4211 7.67306 22.6168 8.11448C22.6591 8.21427 22.6859 8.31407 22.6744 8.33327C22.6629 8.3563 22.6667 8.37165 22.6859 8.37165C22.7166 8.37165 22.778 8.54438 22.7857 8.66721C22.7896 8.69024 22.8011 8.72478 22.8164 8.74014C22.8318 8.75549 22.8356 8.80923 22.8241 8.85529C22.8088 8.91671 22.8164 8.94741 22.8471 8.94741C22.8817 8.94741 22.8855 8.98964 22.8663 9.0856C22.851 9.1662 22.8587 9.2161 22.8778 9.20075C22.9086 9.18155 22.9776 9.72661 22.9738 10.003C22.9738 10.2563 22.9124 10.7899 22.8817 10.7899C22.8663 10.7899 22.8625 10.8513 22.874 10.9242C22.8894 11.0163 22.8817 11.0585 22.851 11.0585C22.8203 11.0585 22.8126 11.0893 22.8279 11.1353C22.8433 11.1814 22.8356 11.2351 22.8164 11.262C22.7934 11.2888 22.7665 11.3733 22.7512 11.4501C22.7358 11.5307 22.709 11.5959 22.6936 11.5959C22.6744 11.5959 22.6706 11.6305 22.6821 11.6727C22.6936 11.7149 22.6821 11.7495 22.6591 11.7495C22.636 11.7495 22.6168 11.7802 22.6168 11.8224C22.6168 11.9068 22.2061 12.7206 22.1524 12.7398C22.1332 12.7474 22.1178 12.7782 22.1178 12.8089C22.1178 12.8396 22.091 12.8741 22.0603 12.8856C22.0296 12.901 22.0027 12.9355 22.0027 12.9624C22.0027 12.9931 21.9758 13.0277 21.9451 13.0392C21.9144 13.0545 21.8875 13.0814 21.8875 13.1083C21.8875 13.1313 21.7877 13.2464 21.6687 13.3616C21.5459 13.4767 21.45 13.5804 21.4538 13.5957C21.4615 13.6111 21.4308 13.638 21.3885 13.6495C21.3463 13.661 21.2849 13.7224 21.2504 13.7838C21.212 13.8452 21.139 13.9143 21.0853 13.945C21.0316 13.9719 20.9279 14.0525 20.855 14.1178C20.7859 14.1869 20.713 14.2329 20.6938 14.2252C20.6784 14.2137 20.617 14.2483 20.5594 14.302C20.5057 14.3519 20.4443 14.3865 20.4289 14.3788C20.4136 14.3673 20.3867 14.3865 20.3752 14.4172C20.3637 14.4479 20.3406 14.4747 20.3253 14.4709C20.2639 14.4632 20.1219 14.5246 20.1219 14.5592C20.1219 14.5784 20.1065 14.5822 20.0835 14.5707C20.0643 14.5592 20.0451 14.5669 20.0451 14.5899C20.0451 14.6129 20.0297 14.6244 20.0105 14.6091C19.9914 14.5976 19.953 14.6129 19.9223 14.6398C19.8954 14.6705 19.8493 14.6858 19.8225 14.6743C19.7994 14.6667 19.7764 14.6782 19.7764 14.7012C19.7764 14.7242 19.7495 14.7319 19.7188 14.7204C19.6881 14.705 19.6612 14.7127 19.6612 14.7357C19.6612 14.7588 19.5922 14.7856 19.5077 14.801C19.4233 14.8164 19.3542 14.8432 19.3542 14.8624C19.3542 14.8816 19.312 14.8893 19.2582 14.8739C19.2006 14.8586 19.1623 14.8663 19.1623 14.8893C19.1623 14.9123 19.0586 14.943 18.9319 14.9584C18.8053 14.9737 18.6901 14.9968 18.6786 15.016C18.6709 15.0313 18.575 15.0351 18.4713 15.0236C18.3408 15.0083 18.2794 15.016 18.2794 15.0467C18.2794 15.0735 18.1566 15.0889 17.8956 15.0889C17.6538 15.0889 17.5117 15.0735 17.5117 15.0505C17.5117 15.0236 17.4273 15.0121 17.3121 15.0121C17.0742 15.0198 16.6212 14.9392 16.5867 14.8854C16.5713 14.8663 16.5329 14.8586 16.4984 14.8701C16.4638 14.8854 16.437 14.8778 16.437 14.8624C16.437 14.8432 16.3679 14.8164 16.2834 14.801C16.199 14.7856 16.1299 14.7588 16.1299 14.7396C16.1299 14.7242 16.103 14.7166 16.0723 14.7281C16.0416 14.7434 16.0147 14.7357 16.0147 14.7166C16.0147 14.6974 15.938 14.6628 15.842 14.6359C15.7461 14.6091 15.6693 14.5707 15.6693 14.5477C15.6693 14.5285 15.6501 14.5208 15.6309 14.5323C15.6079 14.5438 15.5657 14.5285 15.5311 14.4978C15.5004 14.4632 15.4467 14.4364 15.416 14.4364C15.3852 14.4364 15.3622 14.4172 15.3622 14.3941C15.3622 14.3749 15.3469 14.3634 15.3277 14.3749C15.3085 14.3865 15.2854 14.3711 15.2701 14.3404C15.2586 14.3097 15.224 14.2828 15.1933 14.2828C15.1665 14.2828 15.1281 14.2559 15.1166 14.2214C15.105 14.1907 15.0782 14.1715 15.059 14.1869C15.0398 14.1984 14.9976 14.1715 14.9669 14.1293C14.94 14.0871 14.9016 14.064 14.8863 14.0794C14.8709 14.0947 14.8172 14.0563 14.7711 13.9949C14.7212 13.9297 14.6559 13.8798 14.6291 13.8798C14.6022 13.8798 14.5254 13.8107 14.4602 13.7262C14.3988 13.6418 14.2644 13.5075 14.1646 13.4268C14.061 13.3501 13.9804 13.2618 13.9804 13.2349C13.9804 13.2042 13.942 13.1466 13.8959 13.1044C13.7386 12.9662 13.4814 12.5594 13.324 12.2101C13.2818 12.1141 13.2242 11.9951 13.1935 11.9414C13.1666 11.8876 13.1321 11.7802 13.1167 11.6996C13.1014 11.6228 13.0707 11.5575 13.0515 11.5575C13.0285 11.5575 13.0208 11.523 13.0323 11.4808C13.0438 11.4385 13.0361 11.404 13.0131 11.404C12.9901 11.404 12.9862 11.3618 12.9977 11.308C13.0131 11.2543 13.0054 11.2121 12.9824 11.2121C12.9632 11.2121 12.944 11.1622 12.944 11.1008C12.944 11.0355 12.9248 10.9741 12.9018 10.9587C12.8788 10.9434 12.8711 10.882 12.8864 10.8052C12.8979 10.7323 12.8941 10.6747 12.8788 10.6747C12.8404 10.6747 12.8442 9.35812 12.8826 9.30055C12.8979 9.27752 12.8979 9.2161 12.8826 9.1662C12.8711 9.11246 12.8788 9.05873 12.9018 9.04721C12.9248 9.03186 12.944 8.97044 12.944 8.90519C12.944 8.84377 12.9594 8.79387 12.9786 8.79387C12.9939 8.79387 13.0016 8.75165 12.9901 8.69791C12.9786 8.6365 12.9901 8.60196 13.0208 8.60196C13.0476 8.60196 13.0592 8.57508 13.0438 8.54054C13.0285 8.50599 13.0361 8.45609 13.0515 8.43306C13.0707 8.41003 13.0975 8.3371 13.1129 8.27569C13.1436 8.15286 13.2856 7.82659 13.3279 7.79589C13.3394 7.78437 13.3816 7.69609 13.4161 7.60013C13.4545 7.50033 13.5198 7.38901 13.5582 7.35447C13.6004 7.31608 13.6349 7.26235 13.6349 7.23164C13.6349 7.20477 13.6541 7.18174 13.6733 7.18174C13.6963 7.18174 13.7117 7.15871 13.7117 7.13184C13.7117 7.10881 13.7654 7.02436 13.8268 6.95144C13.8883 6.87851 13.942 6.80557 13.942 6.79406C13.942 6.77871 13.9765 6.75951 14.0226 6.748C14.0687 6.73648 14.0917 6.70961 14.0802 6.68658C14.0495 6.64052 14.464 6.21062 14.5139 6.23749C14.5331 6.25284 14.583 6.21062 14.6176 6.14537C14.6559 6.08395 14.6982 6.03021 14.7097 6.03021C14.7212 6.03021 14.7788 5.98799 14.8402 5.93425C14.9016 5.88052 14.9745 5.83829 15.0052 5.83829C15.0321 5.83829 15.0667 5.81142 15.0782 5.78072C15.0935 5.75001 15.1166 5.73466 15.1357 5.74617C15.1549 5.75769 15.2125 5.7193 15.2663 5.66173C15.32 5.60415 15.3622 5.5696 15.3622 5.58496C15.3622 5.60031 15.3891 5.58496 15.4236 5.55041C15.4697 5.50435 15.4966 5.50051 15.5158 5.53122C15.5349 5.56193 15.5503 5.55809 15.5657 5.51587C15.581 5.48132 15.6232 5.45445 15.6655 5.45445C15.7077 5.45445 15.7652 5.42758 15.796 5.39688C15.8267 5.37001 15.8958 5.33162 15.9533 5.31627C16.0071 5.30475 16.0531 5.27405 16.0531 5.25485C16.0531 5.23182 16.08 5.22415 16.1107 5.2395C16.1414 5.25101 16.1683 5.2395 16.1721 5.21263C16.1721 5.17809 16.1798 5.17809 16.1952 5.21263C16.2067 5.25101 16.2259 5.24718 16.2719 5.20495C16.3026 5.17425 16.3602 5.14738 16.3986 5.14738C16.437 5.14738 16.483 5.12819 16.4945 5.10516C16.5099 5.08212 16.5483 5.07445 16.579 5.08596C16.6135 5.10132 16.6596 5.09364 16.6826 5.07829C16.7057 5.05909 16.7517 5.0399 16.7824 5.0399C16.8937 5.02839 17.2891 4.9593 17.3006 4.94778C17.3313 4.92091 18.5136 4.9593 18.7784 4.99768Z" fill="#CE0000"/>
<path d="M21.1735 24.5966C20.9931 24.612 20.97 24.6235 20.9278 24.7233C20.9009 24.7885 20.8625 24.8384 20.8434 24.8384C20.8242 24.8384 20.7973 24.8691 20.7858 24.9037C20.7704 24.9421 20.7205 25.0265 20.6706 25.0918C20.6207 25.157 20.5823 25.2223 20.5823 25.2338C20.5823 25.2568 20.4211 25.514 20.3559 25.5908C20.3405 25.61 20.3021 25.6714 20.2753 25.7251C20.2484 25.775 20.2139 25.8249 20.2023 25.8364C20.1563 25.8748 19.8953 26.2778 19.7916 26.4774C19.7532 26.5465 19.711 26.6041 19.6957 26.6041C19.6842 26.6041 19.6496 26.654 19.6227 26.7192C19.5959 26.7807 19.5613 26.8344 19.546 26.8344C19.5306 26.8344 19.4884 26.9035 19.45 26.9879C19.4116 27.0724 19.3656 27.1415 19.3464 27.1415C19.331 27.1415 19.3157 27.1607 19.3157 27.1837C19.3157 27.2067 19.2734 27.2797 19.2197 27.3487C19.166 27.4178 19.1237 27.4869 19.1237 27.4984C19.1237 27.51 19.0508 27.629 18.9587 27.7633C18.8666 27.8976 18.7821 28.0358 18.7668 28.0704C18.7553 28.1088 18.7284 28.1395 18.7092 28.1395C18.6938 28.1395 18.6555 28.2009 18.6247 28.2738C18.594 28.3467 18.5595 28.4082 18.5441 28.4082C18.5288 28.4082 18.4904 28.4504 18.4635 28.5003C18.4367 28.5502 18.3753 28.6576 18.3292 28.7421C18.2831 28.8265 18.2179 28.9148 18.1872 28.9417C18.1526 28.9724 18.1258 29.0185 18.1258 29.0492C18.1258 29.076 18.1027 29.1106 18.0759 29.1221C18.0451 29.1336 17.9991 29.1989 17.9722 29.2718C17.9185 29.4061 17.8571 29.4522 17.8571 29.3562C17.8571 29.3294 17.8072 29.2488 17.7419 29.1758C17.6805 29.1029 17.6306 29.0223 17.6268 28.9954C17.6268 28.9724 17.6152 28.9455 17.5999 28.9379C17.5615 28.9225 17.3504 28.6077 17.312 28.5118C17.2967 28.4772 17.2698 28.4465 17.2506 28.4465C17.2314 28.4465 17.1969 28.4043 17.1738 28.3506C17.147 28.2968 17.1124 28.2316 17.0894 28.2047C17.0664 28.1778 16.9857 28.0627 16.909 27.9475C16.8322 27.8324 16.7554 27.7211 16.7362 27.698C16.7171 27.6789 16.648 27.5714 16.5827 27.4677C16.5136 27.3603 16.4484 27.2681 16.4369 27.2566C16.3985 27.2221 16.1874 26.892 16.1605 26.8229C16.1451 26.7883 16.1144 26.7576 16.0914 26.7576C16.0722 26.7576 16.053 26.7384 16.053 26.7154C16.053 26.6694 15.8265 26.3316 15.7651 26.2893C15.7459 26.274 15.7421 26.2586 15.7575 26.2586C15.7766 26.2586 15.7267 26.1819 15.6538 26.0898C15.577 26.0015 15.5156 25.9055 15.5156 25.8825C15.5156 25.8594 15.4926 25.8249 15.4657 25.8095C15.4427 25.7942 15.3928 25.7251 15.3621 25.6637C15.3314 25.5984 15.293 25.5409 15.2776 25.5293C15.2316 25.4948 14.9783 25.111 14.9783 25.0726C14.9783 25.0534 14.9514 25.0303 14.9207 25.015C14.89 25.0035 14.8631 24.9728 14.8631 24.9459C14.8593 24.919 14.8094 24.8384 14.7479 24.7655L14.6366 24.635L10.4528 24.658C7.03273 24.6811 6.24201 24.6964 6.14221 24.7386C6.07312 24.7655 5.9311 24.8116 5.8313 24.8346C5.72767 24.8576 5.62019 24.9037 5.58948 24.9306C5.55878 24.9613 5.48585 24.9958 5.42059 25.0112C5.35918 25.0265 5.30544 25.0495 5.30544 25.0687C5.30544 25.0879 5.27473 25.111 5.23251 25.1263C5.19413 25.1378 5.12503 25.1762 5.08665 25.2146C4.78341 25.4756 4.67978 25.5869 4.64523 25.6867C4.62604 25.7481 4.59149 25.798 4.57614 25.798C4.55695 25.798 4.5224 25.8825 4.49553 25.99C4.46866 26.0936 4.43028 26.1819 4.41109 26.1819C4.3919 26.1819 4.38422 26.2087 4.39957 26.2394C4.41109 26.2702 4.40725 26.297 4.38806 26.297C4.36887 26.297 4.342 26.3584 4.32664 26.4352C4.31513 26.512 4.26907 26.6348 4.23068 26.7116C4.1923 26.7922 4.14624 26.9188 4.13472 26.9956C4.11937 27.0762 4.0925 27.1415 4.07715 27.1415C4.05795 27.1415 4.02341 27.2374 3.99654 27.3526C3.96967 27.4677 3.93896 27.5637 3.92361 27.5637C3.90826 27.5637 3.87371 27.6443 3.84684 27.7441C3.81997 27.8477 3.78159 27.9437 3.76623 27.9667C3.75088 27.9859 3.73553 28.0205 3.73169 28.0435C3.72785 28.0627 3.70866 28.1203 3.68947 28.1702C3.67027 28.2201 3.65492 28.2738 3.65492 28.293C3.65492 28.3122 3.62037 28.3928 3.58199 28.4734C3.53977 28.554 3.49371 28.6845 3.48219 28.7613C3.46684 28.8419 3.43997 28.9071 3.42078 28.9071C3.37472 28.9071 3.37472 29.1259 3.42078 29.1451C3.463 29.1605 3.59351 29.3754 3.67795 29.5674C3.7125 29.648 3.75472 29.7132 3.77391 29.7132C3.80462 29.7132 3.85836 29.8168 3.89674 29.9435C3.90058 29.955 3.97351 30.0702 4.06563 30.2045C4.15391 30.3389 4.25755 30.5154 4.29594 30.5999C4.33048 30.6805 4.3727 30.7496 4.38806 30.7496C4.40725 30.7496 4.45331 30.8225 4.49553 30.9108C4.53776 31.0029 4.61452 31.1449 4.66826 31.2294C4.722 31.3138 4.82948 31.4942 4.91008 31.6324C4.98685 31.7706 5.06362 31.8896 5.07897 31.9011C5.09433 31.9126 5.16726 32.0393 5.24402 32.1813C5.32079 32.3272 5.40908 32.4692 5.43978 32.4999C5.47049 32.5344 5.49736 32.5805 5.49736 32.6112C5.49736 32.6381 5.52039 32.6688 5.54726 32.6803C5.57029 32.688 5.61635 32.7609 5.64706 32.8415C5.67393 32.9183 5.7315 33.0181 5.76989 33.0565C5.80827 33.0949 5.84282 33.1563 5.84282 33.187C5.84282 33.2177 5.85817 33.2445 5.87736 33.2445C5.89656 33.2445 5.93494 33.306 5.96181 33.3789C5.98868 33.4518 6.02706 33.5132 6.04242 33.5132C6.05777 33.5132 6.07312 33.5363 6.07312 33.5593C6.07312 33.5862 6.11535 33.6591 6.16525 33.7244C6.23434 33.8088 6.26888 33.828 6.30727 33.7973C6.38404 33.7397 6.63737 33.6745 6.87535 33.6514C6.9905 33.6399 7.09414 33.613 7.10566 33.5938C7.11717 33.5747 7.26303 33.5363 7.42808 33.5094C7.5893 33.4825 7.72364 33.448 7.72364 33.4326C7.72364 33.4211 7.85799 33.3866 8.02304 33.3597C8.18425 33.3328 8.33779 33.2983 8.35698 33.2791C8.38001 33.2637 8.5182 33.2254 8.66406 33.1908C8.81375 33.1601 9.05557 33.1064 9.20143 33.0718C9.35113 33.0373 9.5277 32.9989 9.59679 32.9874C9.66204 32.9759 9.71962 32.9528 9.71962 32.9375C9.71962 32.9221 9.8578 32.8876 10.0267 32.8569C10.1956 32.83 10.3338 32.7955 10.3338 32.7801C10.3338 32.7647 10.4604 32.7302 10.614 32.7033C10.7637 32.6765 10.898 32.6419 10.9095 32.6266C10.921 32.6112 11.113 32.569 11.3318 32.5306C11.5544 32.4961 11.7655 32.4538 11.8 32.4346C11.8384 32.4155 11.9881 32.3809 12.1378 32.354C12.2837 32.3272 12.4065 32.2965 12.4065 32.2811C12.4065 32.2658 12.537 32.2312 12.6944 32.2043C12.8518 32.1775 12.9823 32.1429 12.9823 32.1276C12.9823 32.1161 13.0898 32.0815 13.2241 32.0585C13.3546 32.0316 13.535 31.9856 13.6195 31.9587C13.7077 31.928 13.9265 31.8858 14.1108 31.8589C14.2912 31.832 14.4409 31.7975 14.4409 31.7821C14.4409 31.7668 14.5714 31.7322 14.7288 31.7053C14.8861 31.6785 15.0166 31.6439 15.0166 31.6286C15.0166 31.6171 15.1241 31.5825 15.2585 31.5595C15.389 31.5326 15.5694 31.4866 15.6615 31.4558C15.7498 31.429 15.9494 31.3829 16.1029 31.3599C16.2526 31.3369 16.4061 31.3062 16.4407 31.287C16.4752 31.2678 16.6134 31.2332 16.7478 31.2064C16.8821 31.1833 17.0126 31.1488 17.0318 31.1334C17.0548 31.1142 17.1815 31.0797 17.3197 31.0567C17.4579 31.0298 17.5884 30.9952 17.6076 30.976C17.6306 30.9607 17.7573 30.9261 17.8955 30.8993C18.0336 30.8724 18.1526 30.834 18.1641 30.8187C18.1757 30.8033 18.3714 30.7611 18.5979 30.7266C18.8243 30.692 19.0086 30.6498 19.0086 30.6306C19.0086 30.6152 19.1391 30.5807 19.2965 30.5538C19.4538 30.5308 19.5844 30.4962 19.5844 30.4809C19.5844 30.4655 19.6918 30.431 19.8185 30.408C19.949 30.3811 20.0833 30.3465 20.1179 30.3274C20.2139 30.2775 20.5248 30.2122 20.6783 30.2122C20.7512 30.2122 20.9124 30.1777 21.0353 30.1393C21.1543 30.0971 21.3347 30.0548 21.4383 30.0395C21.5381 30.0241 21.6187 29.9973 21.6187 29.9819C21.6187 29.9665 21.7415 29.932 21.8874 29.9051C22.0371 29.8783 22.1561 29.8399 22.1561 29.8245C22.1561 29.8092 22.2712 29.7785 22.4133 29.7516C22.5553 29.7286 22.6858 29.6979 22.7088 29.6863C22.728 29.671 22.7894 29.6595 22.8432 29.6556C23.0121 29.6441 23.5917 29.5175 23.6339 29.4829C23.6569 29.4676 23.7759 29.433 23.9026 29.4061C24.0292 29.3793 24.1406 29.3486 24.1521 29.3332C24.1789 29.2987 24.5513 29.2142 24.6856 29.2142C24.7432 29.2142 24.8046 29.1989 24.8276 29.1835C24.8468 29.1643 24.9927 29.1259 25.1501 29.0991C25.3074 29.0722 25.4456 29.0377 25.4571 29.0261C25.4802 28.9954 26.0214 28.8688 26.1212 28.8688C26.1557 28.8688 26.1864 28.8534 26.1864 28.8381C26.1864 28.8227 26.3169 28.7843 26.4743 28.7574C26.6317 28.7306 26.7699 28.696 26.7775 28.6807C26.7967 28.65 26.6048 28.4542 25.8333 27.7096C24.9965 26.9035 23.8604 25.798 23.2462 25.1916L22.6129 24.5697L21.991 24.5774C21.6494 24.5813 21.2809 24.5889 21.1735 24.5966Z" fill="#429F9E"/>
<path d="M23.5764 24.6077C23.5764 24.6308 23.6647 24.7306 23.7722 24.8304C23.8797 24.9302 24.156 25.1912 24.3863 25.4138C24.6166 25.6364 25.1118 26.1086 25.4841 26.4694C25.8564 26.8263 26.3094 27.2678 26.4898 27.4443C26.9043 27.8512 27.5223 28.4193 27.5837 28.4538C27.6298 28.4807 27.91 28.427 28.0482 28.3656C28.1595 28.3157 28.6086 28.2159 28.7314 28.2159C28.789 28.2159 28.8351 28.1967 28.8351 28.1775C28.8351 28.1544 28.8734 28.1391 28.9195 28.1391C29.05 28.1391 29.4492 28.0508 29.4492 28.0201C29.4492 28.0047 29.5874 27.974 29.7563 27.9472C29.9252 27.9203 30.0634 27.8857 30.0634 27.8704C30.0634 27.8358 30.6007 27.7169 30.7543 27.7169C30.8157 27.7169 30.8733 27.7015 30.8848 27.6862C30.8963 27.667 31.0268 27.6324 31.1765 27.6055C31.3224 27.5787 31.4452 27.5403 31.4452 27.5249C31.4452 27.5057 31.5527 27.4789 31.687 27.4597C31.948 27.4251 31.9595 27.4059 31.8444 27.1526C31.8137 27.0874 31.7791 26.9799 31.7676 26.9146C31.7523 26.8494 31.7292 26.7956 31.7139 26.7956C31.6985 26.7956 31.6717 26.7304 31.6563 26.6498C31.6448 26.573 31.5987 26.4463 31.5603 26.3657C31.522 26.289 31.4759 26.1661 31.4644 26.0894C31.449 26.0126 31.4222 25.9512 31.4068 25.9512C31.3876 25.9512 31.3838 25.9166 31.3953 25.8744C31.4068 25.8322 31.3991 25.7976 31.3761 25.7976C31.3531 25.7976 31.3224 25.7401 31.307 25.6748C31.2955 25.6057 31.2494 25.5251 31.211 25.4982C31.1688 25.4714 31.1381 25.433 31.1381 25.41C31.1381 25.3409 30.6621 24.9532 30.5777 24.9532C30.547 24.9532 30.524 24.9378 30.524 24.9225C30.524 24.9071 30.4318 24.8611 30.3244 24.8188C30.2131 24.7805 30.1133 24.7382 30.1017 24.7229C30.0902 24.7075 29.9636 24.6691 29.8139 24.6346C29.5759 24.577 29.2189 24.5693 26.5627 24.5693C24.5667 24.5693 23.5764 24.5809 23.5764 24.6077Z" fill="#E5E5E5"/>
<path d="M31.8865 28.2812C31.8443 28.2927 31.7944 28.3158 31.7713 28.3311C31.7099 28.381 31.2723 28.4846 31.1188 28.4846C31.042 28.4846 30.9883 28.5 30.9998 28.5154C31.0113 28.5345 30.8885 28.5691 30.7311 28.596C30.5737 28.6228 30.4471 28.6535 30.4471 28.6689C30.4471 28.6996 30.0863 28.7917 29.9749 28.7917C29.9404 28.7917 29.9097 28.8071 29.9097 28.8224C29.9097 28.8608 29.3263 28.9836 29.165 28.9836C29.1113 28.9836 29.0652 28.999 29.0652 29.0182C29.0652 29.0374 28.9539 29.0758 28.8157 29.1026C28.6776 29.1295 28.5663 29.164 28.5663 29.1794C28.5663 29.1948 28.4396 29.2293 28.2899 29.2562C28.1363 29.283 27.9943 29.3137 27.9713 29.3291C27.9521 29.3445 27.837 29.379 27.7218 29.4059C27.6066 29.4289 27.457 29.475 27.3879 29.5057C27.3226 29.5364 27.2382 29.5594 27.1998 29.5594C27.0846 29.5594 26.6854 29.6515 26.6854 29.6784C26.6854 29.6899 26.5511 29.7245 26.3899 29.7513C26.2248 29.7782 26.0713 29.8166 26.0483 29.8319C26.0252 29.8511 25.9139 29.8857 25.7988 29.9087C25.6836 29.9317 25.5761 29.9663 25.5531 29.9816C25.5339 29.997 25.3612 30.043 25.1693 30.0776C24.9812 30.1121 24.8084 30.1544 24.7854 30.1736C24.7662 30.1889 24.6396 30.2273 24.509 30.2503C24.3747 30.2772 24.2672 30.3117 24.2672 30.3233C24.2672 30.3386 24.1329 30.3732 23.9717 30.4C23.8066 30.4269 23.6147 30.4768 23.5418 30.5075C23.4688 30.542 23.3345 30.5689 23.2424 30.5728C23.1042 30.5766 23.0812 30.5881 23.1004 30.6457C23.1234 30.7148 23.3191 30.9412 23.6723 31.3059C23.7798 31.4134 24.0216 31.6705 24.2097 31.8778C24.4016 32.0813 24.6779 32.3768 24.8276 32.5265C24.9773 32.68 25.1309 32.8489 25.1654 32.9104C25.2038 32.9679 25.2575 33.014 25.2844 33.014C25.3113 33.014 25.3612 33.0562 25.3919 33.1023C25.4226 33.1522 25.5761 33.3249 25.7335 33.4861C25.887 33.6435 26.102 33.8738 26.2056 33.9966C26.4283 34.2538 26.5357 34.3574 26.5741 34.3574C26.5856 34.3574 26.6432 34.4227 26.6931 34.4995C26.7468 34.5801 26.8351 34.6875 26.8927 34.7413C26.9541 34.795 27.0347 34.8756 27.0808 34.9217C27.1652 35.0138 27.2765 35.0368 27.3188 34.9716C27.3303 34.9524 27.384 34.9332 27.4378 34.9332C27.4915 34.9332 27.526 34.9178 27.5145 34.8987C27.503 34.8795 27.5721 34.8449 27.6642 34.818C27.7602 34.7912 27.837 34.7566 27.837 34.7451C27.837 34.7298 27.8945 34.6991 27.9675 34.6722C28.0366 34.6453 28.1363 34.5916 28.1824 34.5494C28.2323 34.5071 28.2937 34.4726 28.3244 34.4726C28.3513 34.4726 28.3743 34.4572 28.3743 34.4419C28.3743 34.4227 28.4741 34.3766 28.597 34.3344C28.716 34.296 28.8618 34.2346 28.9194 34.1962C28.9731 34.1578 29.0384 34.1271 29.0614 34.1271C29.0844 34.1271 29.1036 34.1118 29.1036 34.0926C29.1036 34.0734 29.1689 34.035 29.2495 34.0081C29.3263 33.9851 29.3992 33.9506 29.4107 33.9352C29.4222 33.9237 29.5182 33.87 29.6218 33.8201C29.7293 33.7702 29.8368 33.7049 29.8636 33.678C29.8905 33.6512 29.9634 33.6281 30.0248 33.6281C30.0824 33.6281 30.14 33.6051 30.1515 33.5744C30.163 33.5437 30.2244 33.5091 30.2897 33.4938C30.355 33.4784 30.4087 33.4516 30.4087 33.4362C30.4087 33.417 30.4778 33.3786 30.5622 33.3556C30.6467 33.3287 30.7158 33.2942 30.7158 33.2788C30.7158 33.2635 30.7695 33.2328 30.8309 33.2097C30.8962 33.1906 30.996 33.1368 31.0535 33.0984C31.1111 33.0562 31.2148 33.0101 31.2838 32.9948C31.3491 32.9833 31.4067 32.9526 31.4067 32.9295C31.4067 32.9065 31.4335 32.9027 31.4681 32.9142C31.4988 32.9257 31.5142 32.9219 31.5026 32.8988C31.4911 32.8758 31.5065 32.8605 31.5372 32.8605C31.5679 32.8605 31.6178 32.8374 31.6447 32.8067C31.6754 32.7798 31.7598 32.7338 31.8404 32.7031C31.9172 32.6762 31.9824 32.6417 31.9824 32.6263C31.9824 32.611 32.0707 32.5687 32.1744 32.5303C32.2818 32.492 32.3663 32.4497 32.3663 32.4344C32.3663 32.419 32.443 32.3883 32.539 32.3653C32.635 32.3423 32.7117 32.3077 32.7117 32.2885C32.7117 32.2732 32.7808 32.2348 32.8653 32.2079C32.9497 32.181 33.0188 32.1465 33.0188 32.135C33.0188 32.1196 33.1263 32.0582 33.2606 31.9968C33.3911 31.9354 33.5024 31.8855 33.5063 31.8817C33.5255 31.874 33.4027 31.4633 33.3489 31.3481C33.3182 31.2829 33.2837 31.1639 33.2683 31.0833C33.253 31.0065 33.2261 30.9412 33.2031 30.9412C33.1839 30.9412 33.18 30.9259 33.1915 30.9029C33.2031 30.8837 33.1877 30.8261 33.157 30.78C33.1263 30.7301 33.0879 30.6265 33.0764 30.5459C33.061 30.4691 33.0342 30.4039 33.0188 30.4039C33.0035 30.4039 32.9804 30.354 32.9689 30.2887C32.9536 30.2273 32.9113 30.1006 32.8691 30.0123C32.8307 29.9202 32.7847 29.782 32.7693 29.7014C32.754 29.6247 32.7271 29.5594 32.7117 29.5594C32.6964 29.5594 32.6542 29.4443 32.6196 29.3061C32.5851 29.1679 32.5313 29.0182 32.5006 28.9721C32.4738 28.9261 32.4354 28.8224 32.4239 28.7418C32.4085 28.6651 32.3816 28.5998 32.3663 28.5998C32.3509 28.5998 32.3241 28.5269 32.3049 28.4347C32.2703 28.2774 32.2665 28.2735 32.1168 28.2659C32.0323 28.2659 31.9287 28.2697 31.8865 28.2812Z" fill="#A5C5C3"/>
<path d="M2.96418 30.1699C2.96418 30.216 2.94883 30.2505 2.93348 30.2505C2.91429 30.2505 2.8759 30.3465 2.84903 30.4617C2.82216 30.5768 2.78762 30.6728 2.77226 30.6728C2.75691 30.6728 2.72236 30.7534 2.6955 30.8532C2.66863 30.9568 2.63408 31.0528 2.61873 31.0758C2.60337 31.095 2.56115 31.2178 2.51893 31.3445C2.48054 31.4712 2.43832 31.5825 2.42681 31.594C2.41145 31.6055 2.37691 31.7053 2.35004 31.8128C2.31933 31.9241 2.28862 32.0162 2.27327 32.0162C2.26175 32.0162 2.22721 32.0968 2.20034 32.1966C2.16963 32.3003 2.13509 32.3962 2.11973 32.4193C2.10438 32.4384 2.05832 32.5689 2.01993 32.7071C1.98155 32.8453 1.93933 32.9643 1.92781 32.9758C1.91246 32.9873 1.87791 33.0756 1.8472 33.1754C1.82034 33.2791 1.78579 33.3597 1.77044 33.3597C1.75508 33.3597 1.73589 33.4096 1.72438 33.4748C1.70902 33.5362 1.66296 33.6667 1.62074 33.7589C1.57852 33.8548 1.54397 33.9546 1.54397 33.9815C1.54397 34.0084 1.5171 34.0813 1.48639 34.1427C1.45569 34.2003 1.44033 34.2655 1.45185 34.2847C1.46336 34.3039 1.45569 34.3193 1.44033 34.3193C1.42114 34.3193 1.38276 34.3999 1.35589 34.4997C1.32518 34.6033 1.29063 34.6916 1.27528 34.7031C1.24457 34.73 1.16013 35.0217 1.17932 35.0409C1.187 35.0524 1.24457 35.0409 1.30215 35.0179C1.35973 34.9948 1.5171 34.9641 1.65145 34.9526C1.78195 34.9373 1.88943 34.9142 1.88943 34.895C1.88943 34.8797 2.02761 34.8451 2.1965 34.8183C2.36539 34.7914 2.50357 34.7607 2.50357 34.7453C2.50357 34.73 2.63024 34.6954 2.78378 34.6686C2.93348 34.6417 3.10237 34.5956 3.15611 34.5688C3.20984 34.5419 3.34035 34.5074 3.44399 34.492C3.55146 34.4766 3.6551 34.4498 3.67429 34.4344C3.72035 34.3999 4.03894 34.3346 4.34602 34.3001C4.46117 34.2886 4.56481 34.2579 4.58016 34.2387C4.59167 34.2195 4.70683 34.1811 4.83733 34.1581C4.96784 34.135 5.07532 34.1005 5.07532 34.0813C5.07532 34.0659 5.10218 34.0506 5.13289 34.0506C5.1636 34.0506 5.19047 34.0237 5.19047 33.993C5.19047 33.9201 5.10986 33.7358 5.04461 33.6706C4.99855 33.6245 4.77592 33.2061 4.76056 33.1409C4.75673 33.1217 4.72218 33.0756 4.6838 33.0372C4.64541 32.995 4.6147 32.9298 4.6147 32.8952C4.6147 32.8568 4.60319 32.8223 4.58784 32.8146C4.56864 32.8069 4.51491 32.7186 4.46117 32.6112C4.40743 32.5075 4.32682 32.3655 4.2846 32.3003C4.23854 32.2312 4.17712 32.116 4.15026 32.0392C4.12339 31.9625 4.08884 31.9011 4.07349 31.9011C4.05813 31.9011 4.02743 31.8473 4.00056 31.7859C3.97369 31.7207 3.93914 31.6708 3.92379 31.6708C3.9046 31.6708 3.88157 31.6209 3.86621 31.5556C3.85086 31.4942 3.80096 31.3829 3.74722 31.3061C3.69732 31.2293 3.6551 31.1526 3.6551 31.1372C3.6551 31.118 3.63207 31.0835 3.6052 31.0604C3.57449 31.0374 3.53227 30.953 3.50924 30.8685C3.48237 30.7879 3.44015 30.7112 3.40944 30.6996C3.38257 30.6881 3.34803 30.6344 3.33267 30.5768C3.31732 30.5192 3.29045 30.454 3.26742 30.4309C3.24823 30.4041 3.19833 30.3235 3.15994 30.2505C3.07934 30.0932 2.96418 30.0471 2.96418 30.1699Z" fill="#A5C5C3"/>
<path d="M21.235 31.1294C21.235 31.1486 21.1006 31.1832 20.9394 31.2062C20.7782 31.2292 20.6285 31.2638 20.6055 31.2829C20.5824 31.2983 20.4135 31.3444 20.2293 31.3827C20.0412 31.4211 19.8915 31.4634 19.8915 31.4787C19.8915 31.4941 19.7725 31.5286 19.6228 31.5555C19.477 31.5823 19.3541 31.6169 19.3541 31.6322C19.3541 31.663 18.9434 31.7474 18.7937 31.7474C18.7285 31.7474 18.6594 31.7666 18.6402 31.7858C18.6172 31.8088 18.4713 31.851 18.3178 31.8856C18.1604 31.9163 18.0145 31.9585 17.9915 31.9739C17.9723 31.9931 17.8265 32.0314 17.6768 32.0583C17.5232 32.0852 17.3965 32.1197 17.3965 32.1351C17.3965 32.1504 17.2814 32.1811 17.1394 32.208C16.9935 32.2349 16.863 32.2694 16.84 32.2848C16.8208 32.3001 16.6711 32.3308 16.5176 32.3577C16.3602 32.3807 16.2105 32.4191 16.1913 32.4345C16.1683 32.4537 16.0032 32.4997 15.8228 32.5381C15.6424 32.5727 15.462 32.6264 15.4198 32.6533C15.3775 32.6801 15.2662 32.7147 15.1703 32.73C15.0743 32.7454 14.9899 32.7723 14.9745 32.7876C14.963 32.8068 14.8594 32.8375 14.7442 32.8605C14.6329 32.8797 14.5024 32.9143 14.4602 32.9335C14.4179 32.9527 14.2529 32.991 14.0955 33.0141C13.9381 33.0409 13.7923 33.0755 13.7692 33.0908C13.7501 33.1062 13.5696 33.1523 13.3777 33.1906C13.182 33.229 13.0208 33.2713 13.0208 33.2866C13.0208 33.302 12.9056 33.3327 12.7636 33.3595C12.6177 33.3864 12.4757 33.4286 12.445 33.4555C12.4143 33.4824 12.2838 33.5169 12.1571 33.5323C12.0304 33.5476 11.9191 33.5745 11.9076 33.586C11.8961 33.6014 11.7234 33.6436 11.5238 33.682C11.3242 33.7242 11.1399 33.7664 11.1207 33.7856C11.0977 33.801 10.9595 33.8355 10.8137 33.8624C10.664 33.8892 10.5296 33.9315 10.5066 33.9583C10.4874 33.9814 10.3914 34.0159 10.2955 34.0274C10.2034 34.0428 10.1074 34.0696 10.0805 34.0927C10.0575 34.1119 9.8886 34.1502 9.7082 34.1733C9.43951 34.2078 9.3781 34.2309 9.36274 34.2884C9.33971 34.369 9.43951 34.5878 9.52012 34.6377C9.54315 34.6531 9.56618 34.6915 9.56618 34.7183C9.56618 34.7452 9.6084 34.8181 9.66214 34.8795C9.71588 34.941 9.76961 35.0292 9.78113 35.0753C9.79648 35.1252 9.81951 35.1636 9.83871 35.1636C9.8579 35.1636 9.87325 35.1866 9.87325 35.2173C9.87325 35.2442 9.95386 35.3977 10.0575 35.5513C10.1573 35.7086 10.2609 35.8699 10.2878 35.9121C10.3108 35.9543 10.3646 36.0503 10.403 36.1232C10.4375 36.1961 10.4836 36.2691 10.4989 36.2806C10.5335 36.3074 10.568 36.3612 10.7139 36.626C10.7638 36.7182 10.8597 36.8717 10.925 36.9676C10.9864 37.0636 11.1092 37.2709 11.1937 37.4283C11.2743 37.5856 11.3587 37.7277 11.3779 37.7392C11.4125 37.7622 11.4624 37.8351 11.5622 38.0232C11.6466 38.1806 11.8155 38.4608 11.9268 38.622C12.0304 38.7794 12.0919 38.883 12.2416 39.1671C12.2723 39.2246 12.3145 39.2707 12.3337 39.2707C12.3529 39.2707 12.3682 39.2937 12.3682 39.3244C12.3682 39.3513 12.3951 39.3974 12.4258 39.4242C12.4603 39.4511 12.4757 39.4818 12.4642 39.4933C12.4527 39.5048 12.468 39.5394 12.4911 39.5701C12.5525 39.643 12.6254 39.7659 12.683 39.8925L12.729 40H21.1851C29.3379 40 29.9328 39.9923 29.5643 39.8964C29.5221 39.8848 29.4876 39.8618 29.4876 39.8465C29.4876 39.8158 29.2189 39.5125 28.8926 39.1747C28.6162 38.8869 27.9138 38.1345 27.7181 37.9119C27.6259 37.8083 27.5261 37.7046 27.4954 37.6816C27.4686 37.6586 27.3995 37.5895 27.3419 37.5281C27.2882 37.4666 27.1922 37.3592 27.1269 37.2901C26.4706 36.58 26.2902 36.388 26.0906 36.1808C25.9639 36.0464 25.7221 35.7893 25.5532 35.6088C25.3843 35.4284 25.1271 35.1521 24.9774 34.9947C24.8316 34.8412 24.632 34.6224 24.536 34.5111C24.44 34.3997 24.3287 34.2808 24.2903 34.2462C24.179 34.1502 24.1099 34.0812 23.8835 33.8086C23.7683 33.6704 23.6493 33.5553 23.6263 33.5553C23.5994 33.5515 23.5764 33.5361 23.5764 33.5207C23.5764 33.4862 23.4728 33.371 22.9891 32.8567C22.8586 32.7185 22.7051 32.5535 22.6513 32.4921C22.5938 32.4306 22.517 32.3539 22.4786 32.3193C22.4364 32.2848 22.3289 32.1658 22.233 32.0545C22.137 31.9432 21.9835 31.7704 21.8875 31.6745C21.7915 31.5747 21.6303 31.4058 21.5305 31.2945C21.3655 31.1141 21.235 31.0411 21.235 31.1294Z" fill="#007872"/>
<path d="M33.9246 33.4555C33.8939 33.4862 33.8479 33.5131 33.8248 33.5131C33.798 33.5131 33.6022 33.5975 33.3873 33.705C33.1723 33.8086 32.9842 33.8969 32.965 33.8969C32.9497 33.8969 32.9036 33.9314 32.8576 33.9737C32.8115 34.0159 32.7501 34.0504 32.7232 34.0504C32.6964 34.0504 32.6733 34.0658 32.6733 34.085C32.6733 34.1042 32.6196 34.1272 32.5582 34.1426C32.4085 34.1694 31.9632 34.3844 31.9056 34.4535C31.8826 34.4842 31.8097 34.5187 31.7483 34.5302C31.6868 34.5456 31.6369 34.5725 31.6369 34.5917C31.6369 34.6108 31.6139 34.6262 31.587 34.6262C31.5602 34.6262 31.4719 34.6607 31.3874 34.703C31.303 34.7452 31.207 34.7797 31.1687 34.7797C31.1303 34.7797 31.0996 34.7951 31.0996 34.8181C31.0996 34.8373 31.0727 34.8565 31.042 34.8565C31.0113 34.8565 30.9844 34.8719 30.9844 34.8872C30.9844 34.9064 30.8885 34.9525 30.7695 34.9947C30.6543 35.0331 30.5238 35.0945 30.4854 35.1329C30.4432 35.1713 30.3856 35.202 30.3511 35.202C30.3204 35.202 30.2935 35.2173 30.2935 35.2403C30.2935 35.2595 30.2244 35.2979 30.14 35.321C30.0555 35.3478 29.9864 35.3824 29.9864 35.3977C29.9864 35.4131 29.9212 35.4476 29.8444 35.4707C29.7638 35.4975 29.664 35.5397 29.6218 35.5666C29.5796 35.5896 29.4798 35.6357 29.3953 35.6626C29.3147 35.6894 29.2149 35.7432 29.1765 35.7816C29.1343 35.8238 29.0767 35.8545 29.046 35.8545C29.0153 35.8545 28.9884 35.8699 28.9884 35.8852C28.9884 35.9044 28.9155 35.9428 28.8272 35.9696C28.7351 36.0004 28.6315 36.0541 28.5931 36.0925C28.5547 36.1309 28.4818 36.1616 28.4319 36.1616C28.2515 36.1616 28.2706 36.1923 28.8579 36.8026C29.0115 36.96 29.1842 37.148 29.2418 37.221C29.3032 37.2939 29.4989 37.5089 29.6794 37.6931C29.948 37.9695 30.6121 38.6757 30.9691 39.0634C31.0151 39.1095 31.042 39.1594 31.0305 39.1709C31.019 39.1824 31.0305 39.1939 31.0573 39.1939C31.1111 39.1939 31.4642 39.5471 31.6868 39.8196L31.8365 40L33.299 39.9885C34.7768 39.9731 35.0148 39.9578 35.0148 39.8657C35.0148 39.8349 35.0493 39.8004 35.0915 39.7889C35.1337 39.7774 35.1683 39.7467 35.1683 39.7275C35.1683 39.7083 35.1913 39.6929 35.222 39.6929C35.2527 39.6929 35.2911 39.6584 35.3026 39.6123C35.318 39.5624 35.3487 39.5432 35.3832 39.5547C35.414 39.5663 35.437 39.5547 35.4331 39.5279C35.4216 39.4319 35.437 39.382 35.4754 39.405C35.4984 39.4166 35.5291 39.3859 35.5483 39.336C35.5675 39.2861 35.6174 39.2323 35.6519 39.217C35.7134 39.1939 35.7134 39.1863 35.6673 39.1555C35.6366 39.1325 35.6289 39.1172 35.6519 39.1172C35.675 39.1172 35.7095 39.0442 35.7249 38.9521C35.8055 38.4992 35.8093 38.4262 35.7709 38.1652C35.7364 37.9388 35.698 37.7967 35.6711 37.7737C35.6404 37.7507 35.4984 37.3054 35.5061 37.2632C35.5099 37.2478 35.4984 37.2363 35.483 37.2363C35.4639 37.2363 35.4255 37.1404 35.3986 37.0252C35.3717 36.9101 35.3372 36.8141 35.3218 36.8141C35.3065 36.8141 35.2796 36.7489 35.2643 36.6682C35.2527 36.5915 35.2067 36.4648 35.1683 36.3842C35.1299 36.3074 35.0838 36.1846 35.0723 36.1078C35.057 36.0311 35.0339 35.9696 35.0186 35.9696C35.0032 35.9696 34.961 35.8468 34.9226 35.701C34.8843 35.5513 34.8382 35.4323 34.8228 35.4323C34.8075 35.4323 34.7729 35.3363 34.7461 35.2212C34.7192 35.106 34.6847 35.01 34.6693 35.01C34.6539 35.01 34.6271 34.9448 34.6117 34.8642C34.6002 34.7874 34.5541 34.6607 34.5158 34.5801C34.4774 34.5034 34.4313 34.3805 34.4198 34.3038C34.4044 34.227 34.3776 34.1656 34.3545 34.1656C34.3354 34.1656 34.3277 34.1502 34.3392 34.131C34.3507 34.1118 34.3354 34.0466 34.3046 33.989C34.2739 33.9276 34.2356 33.8201 34.224 33.751C34.2125 33.6858 34.1857 33.6282 34.1703 33.6282C34.155 33.6282 34.1319 33.5745 34.1204 33.5131C34.0935 33.3864 34.0168 33.3634 33.9246 33.4555Z" fill="#429F9E"/>
<path d="M8.14593 34.584C8.14593 34.5994 8.01543 34.6377 7.85805 34.6646C7.69684 34.6915 7.55865 34.726 7.54714 34.7452C7.53946 34.7606 7.40128 34.7951 7.2439 34.822C7.08653 34.8489 6.95602 34.8834 6.95602 34.8949C6.95602 34.9103 6.77945 34.9525 6.5645 34.9909C6.34571 35.0293 6.16147 35.0715 6.14995 35.083C6.11541 35.1214 5.86207 35.202 5.77379 35.202C5.73157 35.202 5.6855 35.2173 5.67399 35.2365C5.66247 35.2557 5.53581 35.2903 5.39378 35.3171C5.24792 35.344 5.11742 35.3786 5.09439 35.3939C5.02913 35.4361 4.76044 35.5014 4.53014 35.5283C4.40731 35.5436 4.30751 35.5705 4.30751 35.5858C4.30751 35.6012 4.16933 35.6357 4.00044 35.6664C3.83155 35.6933 3.69336 35.7279 3.69336 35.7432C3.69336 35.7586 3.60124 35.7893 3.49376 35.8161C3.38245 35.8392 3.25578 35.8737 3.21356 35.8929C3.17134 35.9121 3.01012 35.9543 2.85659 35.985C2.70305 36.0157 2.55335 36.058 2.52648 36.081C2.49577 36.1079 2.31921 36.1462 2.13496 36.1693C1.94688 36.1961 1.78567 36.2268 1.77415 36.2384C1.76264 36.2499 1.65516 36.2844 1.53233 36.3151C1.41334 36.342 1.31354 36.3765 1.31354 36.3919C1.31354 36.4073 1.1792 36.4418 1.01798 36.4687C0.722423 36.5147 0.549694 36.5992 0.545856 36.6913C0.545856 36.7143 0.51131 36.8026 0.469087 36.8794C0.426865 36.96 0.392319 37.0521 0.392319 37.0828C0.392319 37.1135 0.36545 37.1903 0.334742 37.2517C0.304035 37.3093 0.288681 37.3745 0.300197 37.3937C0.311712 37.4129 0.304035 37.4283 0.284843 37.4283C0.269489 37.4283 0.231105 37.5166 0.204236 37.6202C0.177367 37.7238 0.142821 37.8121 0.123629 37.8121C0.108276 37.8121 0.0814066 37.8774 0.0660529 37.9541C-0.0107156 38.3572 -0.014554 38.4531 0.0238302 38.7141C0.0353455 38.7986 0.058376 38.9483 0.0698913 39.0481C0.0890834 39.1786 0.115952 39.2362 0.165852 39.2515C0.208075 39.2669 0.238782 39.2937 0.238782 39.3129C0.238782 39.3782 0.484441 39.6891 0.538179 39.6929C0.561209 39.6929 0.58424 39.7083 0.58424 39.7275C0.58424 39.7467 0.618786 39.7774 0.661008 39.7889C0.703231 39.8004 0.737777 39.8349 0.737777 39.8618C0.737777 39.9923 0.987275 40 6.26511 40C10.8443 40 11.447 39.9923 11.447 39.9424C11.447 39.9117 11.4316 39.8848 11.4086 39.8848C11.3894 39.8848 11.3702 39.8618 11.3702 39.8311C11.3702 39.8004 11.3549 39.7697 11.3357 39.762C11.3011 39.7505 11.1975 39.5586 11.0823 39.3014C11.0439 39.2208 11.0017 39.1556 10.9864 39.1556C10.9672 39.1556 10.8904 39.0289 10.8098 38.8753C10.733 38.7256 10.6371 38.5529 10.5987 38.4953C10.5565 38.4416 10.5258 38.3764 10.5258 38.3533C10.5258 38.3303 10.5104 38.3111 10.4912 38.3111C10.472 38.3111 10.4413 38.2766 10.4298 38.2343C10.4183 38.1921 10.3837 38.1345 10.3607 38.1115C10.3338 38.0846 10.2686 37.9656 10.211 37.8505C10.1035 37.6432 10.0268 37.505 9.98838 37.4667C9.97686 37.4551 9.93848 37.386 9.90009 37.3131C9.76191 37.0406 9.70817 36.9485 9.6813 36.9293C9.64676 36.9024 9.29746 36.2767 9.29746 36.2345C9.29746 36.2192 9.26675 36.1846 9.22837 36.1654C9.19382 36.1462 9.14008 36.0656 9.10938 35.9812C9.07867 35.9006 9.02493 35.7893 8.98655 35.7317C8.94432 35.678 8.91362 35.6127 8.91362 35.5897C8.91362 35.5666 8.89443 35.5475 8.87523 35.5475C8.8522 35.5475 8.79846 35.4745 8.76008 35.3824C8.71786 35.2941 8.62957 35.1329 8.56816 35.0293C8.50291 34.9218 8.44149 34.8066 8.42998 34.7683C8.41462 34.7337 8.39159 34.703 8.37624 34.703C8.35705 34.703 8.33018 34.6685 8.31866 34.6262C8.29563 34.5533 8.14593 34.5149 8.14593 34.584Z" fill="#A5C5C3"/>
</svg>
