<svg width="21" height="21" viewBox="0 0 21 21" fill="none" xmlns="http://www.w3.org/2000/svg">
<path d="M8.17031 0.615877C8.08882 0.623285 7.98512 0.639952 7.93882 0.652914C7.89253 0.665876 7.64994 0.682545 7.39253 0.689951C7.09623 0.699211 6.87771 0.715878 6.78327 0.734396C6.42401 0.80847 6.02401 0.843655 4.9666 0.893656C3.61845 0.958469 3.10549 1.01773 2.58142 1.16958C2.17586 1.2881 1.84438 1.47143 1.62216 1.70292C1.40734 1.92514 1.30734 2.11588 1.22586 2.45477C1.1666 2.70662 1.14623 2.95292 1.13327 3.55106C1.11845 4.18625 1.09808 4.47328 1.04068 4.80477C0.988824 5.11217 0.968453 5.31032 0.929565 5.92143C0.899935 6.36773 0.866602 6.66588 0.827713 6.81958C0.816602 6.86588 0.801787 7.09366 0.798083 7.32884C0.790676 7.63069 0.777713 7.81773 0.753639 7.96773C0.659194 8.52328 0.631416 9.15662 0.688824 9.42884C0.742528 9.68254 0.877713 9.94551 1.11105 10.2529C1.27031 10.4603 1.96475 11.1548 2.25549 11.3974C2.45179 11.5622 5.78142 14.8788 9.44993 18.5622C10.8333 19.9529 10.8907 20.0048 11.2444 20.2066C11.5314 20.3714 11.574 20.3825 11.9036 20.39L12.1925 20.3955L12.3666 20.3288C12.7018 20.1992 13.0666 19.9807 13.3777 19.7214C13.5925 19.5437 13.8351 19.2992 14.4907 18.6159C15.1129 17.964 19.0981 13.9677 19.5999 13.49C19.9796 13.1288 20.1351 12.9381 20.2722 12.6622C20.4073 12.39 20.4388 12.2455 20.4388 11.8955C20.4388 11.4696 20.3796 11.2585 20.1722 10.94C19.9796 10.6455 19.6314 10.2751 19.111 9.80662C18.8203 9.54551 15.8462 6.58625 13.7536 4.47514C13.2203 3.93625 12.3573 3.06588 11.837 2.5418C11.3166 2.01773 10.7925 1.48254 10.6722 1.35106C10.3129 0.964025 10.0351 0.771433 9.67031 0.660322C9.50364 0.608469 9.49994 0.608469 8.91105 0.604767C8.58512 0.602915 8.25179 0.608469 8.17031 0.615877ZM5.84623 4.10847C6.41105 4.20477 6.73882 4.43625 6.98142 4.90847C7.09623 5.12884 7.14253 5.31217 7.14253 5.5418C7.14253 5.85477 7.04808 6.11588 6.82586 6.41588C6.55734 6.77884 6.10734 7.04921 5.70919 7.08995C5.49994 7.11217 5.17956 7.04366 4.95734 6.93069C4.62586 6.76217 4.3166 6.44921 4.17771 6.1418C4.0129 5.77699 4.00919 5.48625 4.16105 5.07329C4.24808 4.84366 4.28882 4.76958 4.41105 4.6381C4.55179 4.48625 4.68512 4.3918 4.99438 4.22699C5.13142 4.15477 5.25364 4.08625 5.2629 4.07514C5.28697 4.05291 5.62956 4.07143 5.84623 4.10847ZM12.8222 5.25106C12.9925 5.35477 13.2407 5.59366 13.6481 6.0418C14.1147 6.55477 17.0833 9.51588 17.4685 9.85106C17.8814 10.214 18.1481 10.5011 18.274 10.7214C18.3185 10.7992 18.3185 10.7992 18.2833 10.8603C18.2148 10.9807 18.161 11.04 18.0481 11.114C17.9851 11.1566 17.9166 11.19 17.8944 11.19C17.824 11.19 17.5999 11.0696 17.4573 10.9548C17.2907 10.8196 17.0999 10.6233 16.7962 10.2714C16.674 10.1288 16.4444 9.8918 16.2888 9.74366C15.9203 9.39736 15.1981 8.67514 14.4203 7.87699C14.0759 7.52328 13.5814 7.03995 13.3092 6.7918C12.737 6.26958 12.3573 5.8844 12.287 5.75477C12.2518 5.68625 12.237 5.63069 12.2333 5.54366L12.2277 5.42514L12.3944 5.28254L12.5592 5.13995L12.637 5.16217C12.6796 5.17514 12.7629 5.21588 12.8222 5.25106ZM11.6277 11.9862C12.0722 13.927 12.4333 15.5159 12.4314 15.5196C12.4277 15.5214 12.2277 15.59 11.987 15.6714C11.687 15.7714 11.5462 15.8103 11.5407 15.7955C11.5166 15.7325 9.92216 8.7381 9.92771 8.73069C9.94623 8.71403 10.7648 8.45291 10.7907 8.45477C10.8129 8.45847 11.0073 9.27884 11.6277 11.9862ZM8.55549 9.97884C8.85919 10.0566 9.10179 10.2103 9.43327 10.5288C9.79994 10.8844 9.96105 11.1066 10.0592 11.3937C10.261 11.9881 10.0592 12.6233 9.49994 13.1529C9.22401 13.414 8.92216 13.5881 8.61105 13.6659C8.44068 13.7085 8.08327 13.7066 7.92031 13.664C7.74068 13.6159 7.48512 13.4825 7.31845 13.3511C7.12956 13.1992 6.77031 12.8288 6.65549 12.6677C6.55179 12.5233 6.45549 12.3214 6.40919 12.1529C6.35734 11.9677 6.3629 11.5974 6.4166 11.4029C6.51105 11.0714 6.69068 10.7918 6.99994 10.4918C7.3166 10.1862 7.64994 10.0048 8.00364 9.95106C8.14808 9.92699 8.41105 9.9418 8.55549 9.97884ZM14.4555 10.5029C14.7703 10.6085 14.9333 10.7251 15.3296 11.1288C15.7073 11.5103 15.8388 11.7233 15.9092 12.0659C16.0148 12.5751 15.8314 13.1029 15.387 13.564C14.974 13.9937 14.5592 14.1937 14.0777 14.1955C13.5944 14.1992 13.2944 14.0474 12.7999 13.5529C12.5148 13.2677 12.387 13.1011 12.2907 12.89C12.0129 12.2733 12.1962 11.5714 12.7851 11.0029C12.9722 10.8214 13.1314 10.7048 13.3296 10.6066C13.5999 10.4696 13.7796 10.4307 14.0777 10.4381C14.2481 10.4437 14.311 10.4548 14.4555 10.5029Z" fill="#CE0000"/>
</svg>
